<svg xmlns="http://www.w3.org/2000/svg" viewBox="0 0 512 512">
  <rect width="512" height="512" rx="100" fill="#FFF5F5"/>
  <circle cx="256" cy="256" r="220" fill="white" stroke="#FFD7D7" stroke-width="4"/>
  <path d="M256 380c-70-40-120-100-120-160 0-40 30-70 65-70 30 0 50 15 55 35 5-20 25-35 55-35 35 0 65 30 65 70 0 60-50 120-120 160z" fill="#E86B6B"/>
  <path d="M256 80 L256 120 M256 392 L256 432 M80 256 L120 256 M392 256 L432 256" stroke="#D4A373" stroke-width="8" stroke-linecap="round"/>
</svg>
